<?xml version="1.0" encoding="UTF-8" standalone="no"?>
<!-- Created with Inkscape (http://www.inkscape.org/) -->

<svg
   xmlns:svg="http://www.w3.org/2000/svg"
   xmlns="http://www.w3.org/2000/svg"
   version="1.1"
   width="186.39999"
   height="118.15"
   id="svg14831">
  <defs
     id="defs14833" />
  <g
     transform="translate(-350.70112,-383.40141)"
     id="layer1">
    <path
       d="m 351.15112,409.95141 67.5,0 0,-20.4 -67.5,0 0,20.4 z"
       id="path17749"
       style="font-size:7.5px;font-style:normal;font-variant:normal;font-weight:normal;font-stretch:normal;text-align:start;line-height:125%;writing-mode:lr-tb;text-anchor:start;fill:#99ccff;fill-opacity:1;fill-rule:evenodd;stroke:none;font-family:Arial;-inkscape-font-specification:Arial" />
    <path
       d="m 351.15112,409.95141 67.5,0 0,-20.4 -67.5,0 0,20.4 z"
       id="path17751"
       style="font-size:7.5px;font-style:normal;font-variant:normal;font-weight:normal;font-stretch:normal;text-align:start;line-height:125%;writing-mode:lr-tb;text-anchor:start;fill:none;stroke:#000000;stroke-width:0.89999998;stroke-linecap:round;stroke-linejoin:round;stroke-miterlimit:10;stroke-opacity:1;stroke-dasharray:none;font-family:Arial;-inkscape-font-specification:Arial" />
    <text
       x="366.66037"
       y="396.96198"
       transform="scale(0.99901956,1.0009814)"
       id="text17755"
       style="font-size:7.5px;font-style:normal;font-variant:normal;font-weight:normal;font-stretch:normal;text-align:start;line-height:125%;writing-mode:lr-tb;text-anchor:start;font-family:Arial;-inkscape-font-specification:Arial">
      <tspan
         x="366.66037 370.86337 372.5137 376.71664 378.82004 383.02298 385.42526 387.52859 391.7316 395.48526 399.68826"
         y="396.96198"
         id="tspan17757"
         style="font-size:7.5px;font-style:normal;font-variant:normal;font-weight:normal;font-stretch:normal;text-align:start;line-height:125%;writing-mode:lr-tb;text-anchor:start;fill:#000000;fill-opacity:1;fill-rule:nonzero;stroke:none;font-family:Arial;-inkscape-font-specification:Arial">«interface»</tspan>
      <tspan
         x="372.36594 377.32089 379.87332 384.07632 388.12912 392.33212 396.08578"
         y="405.95319"
         id="tspan17759"
         style="font-size:7.5px;font-style:normal;font-variant:normal;font-weight:bold;font-stretch:normal;text-align:start;line-height:125%;writing-mode:lr-tb;text-anchor:start;fill:#000000;fill-opacity:1;fill-rule:nonzero;stroke:none;font-family:Arial;-inkscape-font-specification:Arial">Product</tspan>
    </text>
    <path
       d="m 351.15112,492.15141 67.5,0 0,-18 -67.5,0 0,18 z"
       id="path17761"
       style="font-size:7.5px;font-style:normal;font-variant:normal;font-weight:normal;font-stretch:normal;text-align:start;line-height:125%;writing-mode:lr-tb;text-anchor:start;fill:#99ccff;fill-opacity:1;fill-rule:evenodd;stroke:none;font-family:Arial;-inkscape-font-specification:Arial" />
    <path
       d="m 351.15112,492.15141 67.5,0 0,-18 -67.5,0 0,18 z"
       id="path17763"
       style="font-size:7.5px;font-style:normal;font-variant:normal;font-weight:normal;font-stretch:normal;text-align:start;line-height:125%;writing-mode:lr-tb;text-anchor:start;fill:none;stroke:#000000;stroke-width:0.89999998;stroke-linecap:round;stroke-linejoin:round;stroke-miterlimit:10;stroke-opacity:1;stroke-dasharray:none;font-family:Arial;-inkscape-font-specification:Arial" />
    <text
       x="354.79874"
       y="484.9256"
       transform="scale(0.99901956,1.0009814)"
       id="text17767"
       style="font-size:7.5px;font-style:normal;font-variant:normal;font-weight:bold;font-stretch:normal;text-align:start;line-height:125%;writing-mode:lr-tb;text-anchor:start;font-family:Arial;-inkscape-font-specification:Arial Bold">
      <tspan
         x="354.79874 360.20279 364.85855 369.36417 373.56711 376.56888 380.62167 383.17416 387.37711 392.33206 395.33377 399.83939 404.49515 409.00076 413.2037"
         y="484.9256"
         id="tspan17769"
         style="font-size:7.5px;font-style:normal;font-variant:normal;font-weight:bold;font-stretch:normal;text-align:start;line-height:125%;writing-mode:lr-tb;text-anchor:start;fill:#000000;fill-opacity:1;fill-rule:nonzero;stroke:none;font-family:Arial;-inkscape-font-specification:Arial Bold">ConcreteProduct</tspan>
    </text>
    <path
       d="m 384.90112,421.20141 0,52.95"
       id="path17771"
       style="font-size:7.5px;font-style:normal;font-variant:normal;font-weight:normal;font-stretch:normal;text-align:start;line-height:125%;writing-mode:lr-tb;text-anchor:start;fill:none;stroke:#000000;stroke-width:0.60000002;stroke-linecap:round;stroke-linejoin:round;stroke-miterlimit:10;stroke-opacity:1;stroke-dasharray:none;font-family:Arial;-inkscape-font-specification:Arial" />
    <path
       d="m 378.00112,421.20141 13.95,0 -7.05,-11.25 -6.9,11.25"
       id="path17773"
       style="font-size:7.5px;font-style:normal;font-variant:normal;font-weight:normal;font-stretch:normal;text-align:start;line-height:125%;writing-mode:lr-tb;text-anchor:start;fill:#ffffff;fill-opacity:1;fill-rule:evenodd;stroke:none;font-family:Arial;-inkscape-font-specification:Arial" />
    <path
       d="m 378.00112,421.20141 13.95,0 -7.05,-11.25 -6.9,11.25 z"
       id="path17775"
       style="font-size:7.5px;font-style:normal;font-variant:normal;font-weight:normal;font-stretch:normal;text-align:start;line-height:125%;writing-mode:lr-tb;text-anchor:start;fill:none;stroke:#000000;stroke-width:0.89999998;stroke-linecap:round;stroke-linejoin:round;stroke-miterlimit:10;stroke-opacity:1;stroke-dasharray:none;font-family:Arial;-inkscape-font-specification:Arial" />
    <path
       d="m 468.15112,500.10141 67.5,0 0,-15.75 -67.5,0 0,15.75 z"
       id="path17777"
       style="font-size:7.5px;font-style:normal;font-variant:normal;font-weight:normal;font-stretch:normal;text-align:start;line-height:125%;writing-mode:lr-tb;text-anchor:start;fill:#99ccff;fill-opacity:1;fill-rule:evenodd;stroke:none;font-family:Arial;-inkscape-font-specification:Arial" />
    <path
       d="m 468.15112,500.10141 67.5,0 0,-15.75 -67.5,0 0,15.75 z"
       id="path17779"
       style="font-size:7.5px;font-style:normal;font-variant:normal;font-weight:normal;font-stretch:normal;text-align:start;line-height:125%;writing-mode:lr-tb;text-anchor:start;fill:none;stroke:#000000;stroke-width:0.89999998;stroke-linecap:round;stroke-linejoin:round;stroke-miterlimit:10;stroke-opacity:1;stroke-dasharray:none;font-family:Arial;-inkscape-font-specification:Arial" />
    <text
       x="469.81149"
       y="491.81885"
       transform="scale(0.99901956,1.0009814)"
       id="text17783"
       style="font-size:7.5px;font-style:normal;font-variant:normal;font-weight:normal;font-stretch:normal;text-align:start;line-height:125%;writing-mode:lr-tb;text-anchor:start;font-family:Arial;-inkscape-font-specification:Arial">
      <tspan
         x="469.81149 474.31601 476.2692 480.4722 484.22586 486.32919 490.5322 493.08463 496.83829 502.99423 507.19724 509.30063 513.5036 517.7066 521.75946 524.31189"
         y="491.81885"
         id="tspan17785"
         style="font-size:7.5px;font-style:normal;font-variant:normal;font-weight:normal;font-stretch:normal;text-align:start;line-height:125%;writing-mode:lr-tb;text-anchor:start;fill:#000000;fill-opacity:1;fill-rule:nonzero;stroke:none;font-family:Arial;-inkscape-font-specification:Arial">+factoryMethod()</tspan>
    </text>
    <path
       d="m 468.15112,484.35141 67.5,0 0,-18 -67.5,0 0,18 z"
       id="path17787"
       style="font-size:7.5px;font-style:normal;font-variant:normal;font-weight:normal;font-stretch:normal;text-align:start;line-height:125%;writing-mode:lr-tb;text-anchor:start;fill:#99ccff;fill-opacity:1;fill-rule:evenodd;stroke:none;font-family:Arial;-inkscape-font-specification:Arial" />
    <path
       d="m 468.15112,484.35141 67.5,0 0,-18 -67.5,0 0,18 z"
       id="path17789"
       style="font-size:7.5px;font-style:normal;font-variant:normal;font-weight:normal;font-stretch:normal;text-align:start;line-height:125%;writing-mode:lr-tb;text-anchor:start;fill:none;stroke:#000000;stroke-width:0.89999998;stroke-linecap:round;stroke-linejoin:round;stroke-miterlimit:10;stroke-opacity:1;stroke-dasharray:none;font-family:Arial;-inkscape-font-specification:Arial" />
    <text
       x="472.81442"
       y="476.9834"
       transform="scale(0.99901956,1.0009814)"
       id="text17793"
       style="font-size:7.5px;font-style:normal;font-variant:normal;font-weight:bold;font-stretch:normal;text-align:start;line-height:125%;writing-mode:lr-tb;text-anchor:start;font-family:Arial;-inkscape-font-specification:Arial Bold">
      <tspan
         x="472.81442 478.21848 482.72409 487.37991 491.58292 494.43448 498.63748 501.18997 505.24283 510.79703 513.64856 517.85156 522.05457 524.45691 529.11273"
         y="476.9834"
         id="tspan17795"
         style="font-size:7.5px;font-style:normal;font-variant:normal;font-weight:bold;font-stretch:normal;text-align:start;line-height:125%;writing-mode:lr-tb;text-anchor:start;fill:#000000;fill-opacity:1;fill-rule:nonzero;stroke:none;font-family:Arial;-inkscape-font-specification:Arial Bold">ConcreteCreator</tspan>
    </text>
    <path
       d="m 501.90112,433.65141 0,32.7"
       id="path17797"
       style="font-size:7.5px;font-style:normal;font-variant:normal;font-weight:normal;font-stretch:normal;text-align:start;line-height:125%;writing-mode:lr-tb;text-anchor:start;fill:none;stroke:#000000;stroke-width:0.60000002;stroke-linecap:round;stroke-linejoin:round;stroke-miterlimit:10;stroke-opacity:1;stroke-dasharray:none;font-family:Arial;-inkscape-font-specification:Arial" />
    <path
       d="m 495.00112,433.65141 13.95,0 -7.05,-11.25 -6.9,11.25"
       id="path17799"
       style="font-size:7.5px;font-style:normal;font-variant:normal;font-weight:normal;font-stretch:normal;text-align:start;line-height:125%;writing-mode:lr-tb;text-anchor:start;fill:#ffffff;fill-opacity:1;fill-rule:evenodd;stroke:none;font-family:Arial;-inkscape-font-specification:Arial" />
    <path
       d="m 495.00112,433.65141 13.95,0 -7.05,-11.25 -6.9,11.25 z"
       id="path17801"
       style="font-size:7.5px;font-style:normal;font-variant:normal;font-weight:normal;font-stretch:normal;text-align:start;line-height:125%;writing-mode:lr-tb;text-anchor:start;fill:none;stroke:#000000;stroke-width:0.89999998;stroke-linecap:round;stroke-linejoin:round;stroke-miterlimit:10;stroke-opacity:1;stroke-dasharray:none;font-family:Arial;-inkscape-font-specification:Arial" />
    <path
       d="m 468.15112,422.40141 67.5,0 0,-20.55 -67.5,0 0,20.55 z"
       id="path17803"
       style="font-size:7.5px;font-style:normal;font-variant:normal;font-weight:normal;font-stretch:normal;text-align:start;line-height:125%;writing-mode:lr-tb;text-anchor:start;fill:#99ccff;fill-opacity:1;fill-rule:evenodd;stroke:none;font-family:Arial;-inkscape-font-specification:Arial" />
    <path
       d="m 468.15112,422.40141 67.5,0 0,-20.55 -67.5,0 0,20.55 z"
       id="path17805"
       style="font-size:7.5px;font-style:normal;font-variant:normal;font-weight:normal;font-stretch:normal;text-align:start;line-height:125%;writing-mode:lr-tb;text-anchor:start;fill:none;stroke:#000000;stroke-width:0.89999998;stroke-linecap:round;stroke-linejoin:round;stroke-miterlimit:10;stroke-opacity:1;stroke-dasharray:none;font-family:Arial;-inkscape-font-specification:Arial" />
    <text
       x="469.81149"
       y="409.39978"
       transform="scale(0.99901956,1.0009814)"
       id="text17809"
       style="font-size:7.5px;font-style:normal;font-variant:normal;font-weight:normal;font-stretch:normal;text-align:start;line-height:125%;writing-mode:lr-tb;text-anchor:start;font-family:Arial;-inkscape-font-specification:Arial">
      <tspan
         x="469.81149 474.31601 476.2692 480.4722 484.22586 486.32919 490.5322 493.08463 496.83829 502.99423 507.19724 509.30063 513.5036 517.7066 521.75946 524.31189"
         y="409.39978"
         id="tspan17811"
         style="font-size:7.5px;font-style:normal;font-variant:normal;font-weight:normal;font-stretch:normal;text-align:start;line-height:125%;writing-mode:lr-tb;text-anchor:start;fill:#000000;fill-opacity:1;fill-rule:nonzero;stroke:none;font-family:Arial;-inkscape-font-specification:Arial">+factoryMethod()</tspan>
      <tspan
         x="469.81149 474.31601 478.36887 482.57187 488.42886 492.63187 496.83487 499.23715 503.44016 505.54349 507.19388 511.39688 515.59991 518.0022"
         y="418.39093"
         id="tspan17813"
         style="font-size:7.5px;font-style:normal;font-variant:normal;font-weight:normal;font-stretch:normal;text-align:start;line-height:125%;writing-mode:lr-tb;text-anchor:start;fill:#000000;fill-opacity:1;fill-rule:nonzero;stroke:none;font-family:Arial;-inkscape-font-specification:Arial">+anOperation()</tspan>
    </text>
    <path
       d="m 468.15112,401.85141 67.5,0 0,-18 -67.5,0 0,18 z"
       id="path17815"
       style="font-size:7.5px;font-style:normal;font-variant:normal;font-weight:normal;font-stretch:normal;text-align:start;line-height:125%;writing-mode:lr-tb;text-anchor:start;fill:#99ccff;fill-opacity:1;fill-rule:evenodd;stroke:none;font-family:Arial;-inkscape-font-specification:Arial" />
    <path
       d="m 468.15112,401.85141 67.5,0 0,-18 -67.5,0 0,18 z"
       id="path17817"
       style="font-size:7.5px;font-style:normal;font-variant:normal;font-weight:normal;font-stretch:normal;text-align:start;line-height:125%;writing-mode:lr-tb;text-anchor:start;fill:none;stroke:#000000;stroke-width:0.89999998;stroke-linecap:round;stroke-linejoin:round;stroke-miterlimit:10;stroke-opacity:1;stroke-dasharray:none;font-family:Arial;-inkscape-font-specification:Arial" />
    <text
       x="489.0303"
       y="394.71417"
       transform="scale(0.99901956,1.0009814)"
       id="text17821"
       style="font-size:7.5px;font-style:normal;font-variant:normal;font-weight:bold;font-stretch:normal;text-align:start;line-height:125%;writing-mode:lr-tb;text-anchor:start;font-family:Arial;-inkscape-font-specification:Arial Bold">
      <tspan
         x="489.0303 494.43436 497.43607 501.48892 505.69193 508.24442 512.75"
         y="394.71417"
         id="tspan17823"
         style="font-size:7.5px;font-style:normal;font-variant:normal;font-weight:bold;font-stretch:normal;text-align:start;line-height:125%;writing-mode:lr-tb;text-anchor:start;fill:#000000;fill-opacity:1;fill-rule:nonzero;stroke:none;font-family:Arial;-inkscape-font-specification:Arial Bold">Creator</tspan>
    </text>
    <path
       d="m 468.15112,483.45141 -4.2,0 -0.3,-0.3 0.3,-0.3 4.2,0 0.3,0.3 -0.3,0.3 z m -7.2,0 -4.2,0 -0.3,-0.3 0.3,-0.3 4.2,0 0.3,0.3 -0.3,0.3 z m -7.2,0 -4.2,0 -0.3,-0.3 0.3,-0.3 4.2,0 0.3,0.3 -0.3,0.3 z m -7.2,0 -4.2,0 -0.3,-0.3 0.3,-0.3 4.2,0 0.3,0.3 -0.3,0.3 z m -7.2,0 -4.2,0 -0.3,-0.3 0.3,-0.3 4.2,0 0.3,0.3 -0.3,0.3 z m -7.2,0 -4.2,0 -0.3,-0.3 0.3,-0.3 4.2,0 0.3,0.3 -0.3,0.3 z m -7.2,0 -3.3,0 -0.3,-0.3 0.3,-0.3 3.3,0 0.3,0.3 -0.3,0.3"
       id="path18079"
       style="font-size:7.5px;font-style:normal;font-variant:normal;font-weight:normal;font-stretch:normal;text-align:start;line-height:125%;writing-mode:lr-tb;text-anchor:start;fill:#000000;fill-opacity:1;fill-rule:nonzero;stroke:none;font-family:Arial;-inkscape-font-specification:Arial" />
    <path
       d="m 422.40112,486.90141 -3.75,-3.75 3.75,-3.75 0,7.5"
       id="path18081"
       style="font-size:7.5px;font-style:normal;font-variant:normal;font-weight:normal;font-stretch:normal;text-align:start;line-height:125%;writing-mode:lr-tb;text-anchor:start;fill:#000000;fill-opacity:1;fill-rule:evenodd;stroke:none;font-family:Arial;-inkscape-font-specification:Arial" />
  </g>
</svg>
